<svg height="512" viewBox="0 0 512 512" width="512" xmlns="http://www.w3.org/2000/svg"><g id="flat"><path d="m380 488h-248a20 20 0 0 1 -20-20v-324h288v324a20 20 0 0 1 -20 20z" fill="#dcdbd6"/><path d="m200 176h-32v-128l32-24z" fill="#768753"/><path d="m312 176h32v-128l-32-24z" fill="#768753"/><path d="m200 24h112v32h-112z" fill="#5d6a41"/><circle cx="256" cy="328" fill="#5ebef7" r="96"/><g fill="#b5cf7f"><path d="m352 328a95.544 95.544 0 0 1 -5.47 32h-42.53a16 16 0 0 1 0-32h-16a16 16 0 0 1 0-32h58.53a95.544 95.544 0 0 1 5.47 32z"/><path d="m256 368a16 16 0 0 1 -16 16h-16a16 16 0 0 1 0 32h-6.42a96.239 96.239 0 0 1 -54.56-64h76.98a15.979 15.979 0 0 1 16 16z"/><path d="m264 256a24.006 24.006 0 0 1 -24 24h-36a12 12 0 0 1 0 24h-40.98a96.074 96.074 0 0 1 82.28-71.4 23.983 23.983 0 0 1 18.7 23.4z"/></g></g></svg>