<svg height="512" viewBox="0 0 512 512" width="512" xmlns="http://www.w3.org/2000/svg"><g id="flat"><circle cx="112" cy="384" fill="#92d1f7" r="88"/><path d="m112 480a96 96 0 1 1 96-96 96.108 96.108 0 0 1 -96 96zm0-176a80 80 0 1 0 80 80 80.091 80.091 0 0 0 -80-80z" fill="#7a4922"/><path d="m112 416a32 32 0 0 1 -23.85-53.336 8 8 0 0 1 11.922 10.671 16 16 0 0 0 22.593 22.593 8 8 0 1 1 10.67 11.922 31.95 31.95 0 0 1 -21.335 8.15z" fill="#5ebef7"/><circle cx="400" cy="384" fill="#92d1f7" r="88"/><path d="m400 480a96 96 0 1 1 96-96 96.108 96.108 0 0 1 -96 96zm0-176a80 80 0 1 0 80 80 80.091 80.091 0 0 0 -80-80z" fill="#7a4922"/><path d="m392 264h-8a8 8 0 0 0 0 16h8a24 24 0 0 0 0-48h-40a8 8 0 0 0 -6.656 3.562l-13.625 20.438h-142.047l-14.593-27.726a8 8 0 1 0 -14.158 7.452l14.352 27.274-70.133 116.884a8 8 0 0 0 13.72 8.232l65.132-108.554 56.929 108.164a8 8 0 0 0 7.079 4.274h16a8 8 0 0 0 6.86-3.884l64.73-107.884 57.351 107.533a8 8 0 1 0 14.118-7.53l-61.749-115.778 10.971-16.457h35.719a8 8 0 0 1 0 16zm-132.529 112h-6.641l-54.737-104h123.777z" fill="#91a666"/><circle cx="256" cy="384" fill="#eae9e4" r="28"/><circle cx="256" cy="384" fill="#dcdbd6" r="14.426"/><path d="m196 232h-9.373a25.657 25.657 0 0 0 -18.142 7.515 28.971 28.971 0 0 1 -20.485 8.485 20 20 0 0 1 -20-20 20 20 0 0 1 20-20h48a12 12 0 0 1 12 12 12 12 0 0 1 -12 12z" fill="#7a4922"/><path d="m400 416a32.049 32.049 0 0 1 -23.85-10.664 8 8 0 0 1 11.922-10.671 16 16 0 0 0 23.856-21.33 8 8 0 0 1 11.922-10.671 32 32 0 0 1 -23.85 53.336z" fill="#5ebef7"/><path d="m208 144h32l-8 56 64-72h-32l8-56z" fill="#ee9d0d"/><path d="m248 240c-2.886 0-5.8-.12-8.658-.356a8 8 0 1 1 1.316-15.945c2.423.2 4.894.3 7.342.3a87.93 87.93 0 1 0 -80.024-51.337 8 8 0 1 1 -14.541 6.674 104.015 104.015 0 1 1 94.565 60.664z" fill="#f3be5f"/></g></svg>