<svg height="512" viewBox="0 0 512 512" width="512" xmlns="http://www.w3.org/2000/svg"><g id="flat"><path d="m400 168h-288v-64l48-80h192l48 80z" fill="#91a666"/><path d="m184 24h144a0 0 0 0 1 0 0v82a14 14 0 0 1 -14 14h-116a14 14 0 0 1 -14-14v-82a0 0 0 0 1 0 0z" fill="#768753"/><path d="m196 24h120a0 0 0 0 1 0 0v72a11.667 11.667 0 0 1 -11.667 11.667h-96.666a11.667 11.667 0 0 1 -11.667-11.667v-72a0 0 0 0 1 0 0z" fill="#91a666"/><path d="m120 168v32h8l22.777 273.329a16 16 0 0 0 15.945 14.671h178.556a16 16 0 0 0 15.945-14.671l22.777-273.329h8v-32z" fill="#768753"/><g fill="#667447"><path d="m248 208a8 8 0 0 1 -8 8h-110.67l-1.33-16h112a8 8 0 0 1 8 8z"/><path d="m384 200-1.33 16h-110.67a8 8 0 0 1 0-16z"/><path d="m290.965 306.933a8 8 0 0 0 9-7.137l2-20a8 8 0 1 0 -15.92-1.592l-.226 2.257-18.182-22.721a14 14 0 0 0 -22.937 1.543l-19.56 32.6a8 8 0 1 0 13.72 8.232l18.08-30.135 14.629 18.286-1.534-.2a8 8 0 0 0 -2.07 15.866z"/><path d="m329.408 354.8-18.548-30.916a8 8 0 1 0 -13.72 8.232l16.73 27.884h-22.556l2.343-2.343a8 8 0 0 0 -11.314-11.314l-16 16a8 8 0 0 0 0 11.314l16 16a8 8 0 0 0 11.314-11.314l-2.343-2.343h26.086a14 14 0 0 0 12-21.2z"/><path d="m240.161 360.966-33.64-.676 12.761-19.71.6 3.143a8 8 0 0 0 15.719-2.985l-4.221-22.23a8 8 0 0 0 -9.352-6.367l-22.228 4.219a8 8 0 0 0 2.984 15.719l3.357-.637-15 23.167a14 14 0 0 0 11.47 21.605l37.23.748h.164a8 8 0 0 0 .158-16z"/><path d="m120 168h272v16h-272z"/></g></g></svg>