<svg height="512" viewBox="0 0 512 512" width="512" xmlns="http://www.w3.org/2000/svg"><g id="flat"><path d="m102 40h180a30 30 0 0 1 30 30v354a0 0 0 0 1 0 0h-240a0 0 0 0 1 0 0v-354a30 30 0 0 1 30-30z" fill="#b5cf7f"/><path d="m104 72h176v96h-176z" fill="#92d1f7"/><path d="m104 72h168v88h-168z" fill="#a6deff"/><path d="m192.93 339.41-.15 12.24-10.79-.4-3.35-.12a62.718 62.718 0 0 1 -60.34-66.2l.49-8.66.66-11.64 10.66.25 1.69.04a62.638 62.638 0 0 1 43.56 19.01l-7.86 25.3z" fill="#91a666"/><path d="m277.011 241.349-33.893 5.536a63.9 63.9 0 0 0 -53.431 67.665l2.682 37.127 25.2-1.986a63.9 63.9 0 0 0 58.871-62.9z" fill="#768753"/><path d="m276.84 254.71-31.41 40.94 31.01-9.17v.31a63.486 63.486 0 0 1 -2.56 17.14l-45.01 13.31-25.76 33.59-10.74.85-.87-12.02 29.69-38.69-11.21-37.88a63.727 63.727 0 0 1 13.78-9.76 2.7 2.7 0 0 1 .14.4l9.33 31.54 32.25-42.04 11.53-1.88z" fill="#768753"/><path d="m276.84 254.71-31.41 40.94 31.01-9.17v.31a63.486 63.486 0 0 1 -2.56 17.14l-45.01 13.31-25.76 33.59-10.74.85-.87-12.02 29.69-38.69-11.21-37.88a63.727 63.727 0 0 1 13.78-9.76 2.7 2.7 0 0 1 .14.4l9.33 31.54 32.25-42.04 11.53-1.88z" fill="#667447"/><path d="m72 424h240a8 8 0 0 1 8 8v56a0 0 0 0 1 0 0h-256a0 0 0 0 1 0 0v-56a8 8 0 0 1 8-8z" fill="#dcdbd6"/><path d="m320 448v16h-144a8 8 0 0 1 0-16z" fill="#bbbab6"/><path d="m376 48 64 48v40h-32v-24l-32-24z" fill="#dcdbd6"/><path d="m448 240h-64v-88l24-16h40z" fill="#768753"/><path d="m416 216a8 8 0 0 1 -8-8v-40a8 8 0 0 1 16 0v40a8 8 0 0 1 -8 8z" fill="#667447"/><path d="m408 240v136a16 16 0 0 1 -16 16 16 16 0 0 1 -16-16v-69.459a30 30 0 0 0 -16.584-26.833l-47.416-23.708v32l25.367 12.683a12 12 0 0 1 6.633 10.733v64.584a48 48 0 0 0 48 48 48 48 0 0 0 48-48v-136z" fill="#dcdbd6"/><path d="m128 464h-24a8 8 0 0 1 0-16h24a8 8 0 0 1 0 16z" fill="#bbbab6"/><g fill="#5ebef7"><circle cx="192" cy="120" r="10"/><circle cx="226" cy="120" r="10"/><circle cx="158" cy="120" r="10"/></g><path d="m119.446 264.634 12.349.283a62.719 62.719 0 0 1 61.279 63.493l-.293 23.238-14.137-.515a62.719 62.719 0 0 1 -60.34-66.2z" fill="#91a666"/><path d="m192.93 339.41-.15 12.24-10.79-.4-63.2-74.98.66-11.64 10.66.25 25.15 29.83 6.62-21.32a62.493 62.493 0 0 1 13.48 10.54l-7.86 25.3z" fill="#768753"/><path d="m408 120h32v16h-32z" fill="#bbbab6"/></g></svg>