<svg height="512" viewBox="0 0 512 512" width="512" xmlns="http://www.w3.org/2000/svg"><g id="flat"><g fill="#dcdbd6"><path d="m342.327 69.2a71.98 71.98 0 0 0 -123.327-17.8 53.833 53.833 0 0 0 -50.845 22.8 36 36 0 1 0 0 61.594 54.016 54.016 0 0 0 65.607 18.851 71.941 71.941 0 0 0 98.377-14.22 36 36 0 1 0 10.188-71.225z"/><circle cx="360" cy="160" r="40"/><path d="m144 456h-84a44.049 44.049 0 0 1 -44-44v-49a27.03 27.03 0 0 1 27-27h5a8 8 0 0 1 0 16h-5a11.013 11.013 0 0 0 -11 11v49a28.032 28.032 0 0 0 28 28h84a8 8 0 0 1 0 16z"/><path d="m256 432h-32a8 8 0 0 1 0-16h32a8 8 0 0 1 0 16z"/><path d="m256 480h-32a8 8 0 0 1 0-16h32a8 8 0 0 1 0 16z"/></g><path d="m360 112a48 48 0 1 0 48 48 48.054 48.054 0 0 0 -48-48zm0 16a31.8 31.8 0 0 1 16.242 4.444l-43.8 43.8a31.979 31.979 0 0 1 27.558-48.244zm0 64a31.8 31.8 0 0 1 -16.242-4.444l43.8-43.8a31.979 31.979 0 0 1 -27.558 48.244z" fill="#ea2b2d"/><path d="m216 112h-8a8 8 0 0 1 0-16h8a8 8 0 0 0 0-16h-8a24 24 0 0 0 0 48h8a8 8 0 0 0 0-16z" fill="#bbbab6"/><path d="m296 123.313h-4.687l2.344-2.342a19.3 19.3 0 0 0 -25.037-29.234 23.993 23.993 0 1 0 2 20.268l7.035-7.034a3.313 3.313 0 1 1 4.686 4.685l-16 16a8 8 0 0 0 5.659 13.657h24a8 8 0 1 0 0-16zm-48-11.313a8 8 0 1 1 8-8 8.009 8.009 0 0 1 -8 8z" fill="#bbbab6"/><path d="m488 313.167v30.833l-32 16h-408l-24-16 8-80 54.62-33.9 27.338 25.169 222.042.731 24-8 84.757 12.108a47.6 47.6 0 0 1 37.464 29.443l2.375 5.938a47.6 47.6 0 0 1 3.404 17.678z" fill="#2c91ff"/><path d="m488 314.76v29.24l-32 16h-104v-28.951a121.166 121.166 0 0 0 -24.268-72.749l-1.752-2.333 10.02.033 7.75-2.58 16.25-5.42 80.01 11.43a55.9 55.9 0 0 1 47.99 55.33z" fill="#2c91ff"/><path d="m88 307.844v-8.377a73.824 73.824 0 0 1 21.765-52.546c4.96-4.959 14.806-2.049 14.027 8.74a.061.061 0 0 1 -.019.04 58.012 58.012 0 0 0 -19.773 43.766v4.533c0 6.983-8.946 11.875-16 3.844z" fill="#007af6"/><path d="m368 333.89v26.11h-16v-28.951a121.166 121.166 0 0 0 -24.268-72.749l-1.752-2.333a8 8 0 0 1 12.89-9.48c1.7 2.26 3.32 4.57 4.88 6.93a146.782 146.782 0 0 1 24.25 80.473z" fill="#007af6"/><path d="m272 296h-19.846c-8.029-7.057-3.135-16 3.846-16h19.846c8.029 7.057 3.135 16-3.846 16z" fill="#007af6"/><path d="m144 296h-19.846c-8.029-7.057-3.135-16 3.846-16h19.846c8.029 7.057 3.135 16-3.846 16z" fill="#007af6"/><circle cx="96" cy="352" fill="#6a6c65" r="48"/><circle cx="96" cy="352" fill="#eae9e4" r="16"/><circle cx="408" cy="352" fill="#6a6c65" r="48"/><circle cx="408" cy="352" fill="#eae9e4" r="16"/><path d="m336 256 24-8-86.966-43.483a42.793 42.793 0 0 0 -19.134-4.517h-109.087a51.7 51.7 0 0 0 -30.41 9.889l-27.783 20.211 27.338 25.169z" fill="#a6deff"/><path d="m216 255.602v-55.602h16v55.655" fill="#5ebef7"/><path d="m232 255.655v104.345h-16v-104.398z" fill="#007af6"/><path d="m184 408h40a0 0 0 0 1 0 0v80a0 0 0 0 1 0 0h-40a40 40 0 0 1 -40-40 40 40 0 0 1 40-40z" fill="#dcdbd6"/></g></svg>