<svg height="512" viewBox="0 0 512 512" width="512" xmlns="http://www.w3.org/2000/svg"><g id="flat"><path d="m274.305 352h.628c-.118-.078-.24-.152-.357-.231-.089.079-.182.153-.271.231z" fill="none"/><path d="m467.768 240a47.993 47.993 0 0 0 -19.809-77.272c.025-.906.041-1.815.041-2.728a96.012 96.012 0 0 0 -186.615-31.758c-1.777-.148-3.57-.242-5.385-.242a64.027 64.027 0 0 0 -62 48.051q-1-.049-2-.051a40 40 0 0 0 -32 64z" fill="#dcdbd6"/><path d="m288 336a40 40 0 0 0 -40-40c-.134 0-.265.009-.4.01a79.992 79.992 0 0 0 -144.164-39.233 47.918 47.918 0 0 0 -27.336 15.373 55.975 55.975 0 0 0 -42.045 87.85h245.945a39.817 39.817 0 0 0 8-24z" fill="#eae9e4"/><path d="m344 272a8 8 0 0 0 -8 8v16a8 8 0 0 0 16 0v-16a8 8 0 0 0 -8-8z" fill="#a6deff"/><path d="m416 288a8 8 0 0 0 -8 8v16a8 8 0 0 0 16 0v-16a8 8 0 0 0 -8-8z" fill="#92d1f7"/><path d="m376 328a8 8 0 0 0 -8 8v16a8 8 0 0 0 16 0v-16a8 8 0 0 0 -8-8z" fill="#a6deff"/><path d="m336 360a8 8 0 0 0 -8 8v16a8 8 0 0 0 16 0v-16a8 8 0 0 0 -8-8z" fill="#92d1f7"/><path d="m120 384a8 8 0 0 0 -8 8v16a8 8 0 0 0 16 0v-16a8 8 0 0 0 -8-8z" fill="#a6deff"/><path d="m200 384a8 8 0 0 0 -8 8v16a8 8 0 0 0 16 0v-16a8 8 0 0 0 -8-8z" fill="#92d1f7"/><g fill="#a6deff"><path d="m248 400a8 8 0 0 0 -8 8v16a8 8 0 0 0 16 0v-16a8 8 0 0 0 -8-8z"/><path d="m168 424a8 8 0 0 0 -8 8v16a8 8 0 0 0 16 0v-16a8 8 0 0 0 -8-8z"/></g></g></svg>