<svg height="512" viewBox="0 0 512 512" width="512" xmlns="http://www.w3.org/2000/svg"><g id="flat"><path d="m256 96-120 96v296h240v-296zm0 80a16 16 0 1 1 16-16 16 16 0 0 1 -16 16z" fill="#ee9d0d"/><path d="m251.44 365.19-.16 12.22-10.79-.39-70.59-83.75.66-11.64 10.67.24 29.08 34.51 7.67-24.7a68.906 68.906 0 0 1 13.48 10.53l-8.91 28.7z" fill="#91a666"/><path d="m344 256-37.307 6.094a70.336 70.336 0 0 0 -58.815 74.482l2.952 40.868 27.744-2.187a70.336 70.336 0 0 0 64.8-69.241z" fill="#768753"/><path d="m344 256-.17 13.36-.45 36.66c0 .17 0 .33-.01.5a70.23 70.23 0 0 1 -2.54 17.44l-50.3 14.88-28.97 37.76-10.73.84-.87-12.01 33.49-43.64-12.57-42.48a69.737 69.737 0 0 1 13.81-9.74l10.8 36.52 36.98-48.21z" fill="#768753"/><path d="m343.83 269.36-36.74 47.89 36.28-10.73a70.23 70.23 0 0 1 -2.54 17.44l-50.3 14.88-28.97 37.76-10.73.84-.87-12.01 33.49-43.64-12.57-42.48a69.737 69.737 0 0 1 13.81-9.74l10.8 36.52 36.98-48.21 11.53-1.88z" fill="#667447"/><path d="m271.992 160a8 8 0 0 1 -6.776-12.241l34.712-55.54a25.854 25.854 0 0 1 22.049-12.219h46.023a24 24 0 0 0 0-48h-62a42.047 42.047 0 0 0 -42 42v70a8 8 0 0 1 -16 0v-70a58.066 58.066 0 0 1 58-58h62a40 40 0 0 1 0 80h-46.023a9.945 9.945 0 0 0 -8.481 4.7l-34.712 55.54a8 8 0 0 1 -6.792 3.76z" fill="#b5cf7f"/><path d="m170.561 281.632 13.593.311a69.038 69.038 0 0 1 67.453 69.889l-.323 25.58-15.561-.566a69.039 69.039 0 0 1 -66.423-72.871z" fill="#91a666"/><path d="m251.44 365.19-.16 12.22-10.79-.39-70.59-83.75.66-11.64 10.67.24 29.08 34.51 7.67-24.7a68.906 68.906 0 0 1 13.48 10.53l-8.91 28.7z" fill="#768753"/></g></svg>