<svg height="512" viewBox="0 0 512 512" width="512" xmlns="http://www.w3.org/2000/svg"><g id="flat"><path d="m320 448h-128l-3.351-3.351a24.818 24.818 0 0 1 -4.649-28.649 35.778 35.778 0 0 1 0-32h144a35.778 35.778 0 0 1 0 32 24.818 24.818 0 0 1 -4.649 28.649z" fill="#eae9e4"/><path d="m224 416a8 8 0 0 1 -8 8h-34.43a25.058 25.058 0 0 1 2.43-8 36.137 36.137 0 0 1 -2.88-8h34.88a8 8 0 0 1 8 8z" fill="#dcdbd6"/><path d="m328 416a25.058 25.058 0 0 1 2.43 8h-74.43a8 8 0 0 1 0-16h74.88a36.137 36.137 0 0 1 -2.88 8z" fill="#dcdbd6"/><path d="m408 178.95a154.717 154.717 0 1 0 -283.418 85.885c7.084 10.594 14.071 21.253 20.628 32.182l14.23 23.717a199.576 199.576 0 0 1 23.6 59.005l.96 4.261h144l2.666-11.888a199.606 199.606 0 0 1 16.234-45.576 733.8 733.8 0 0 1 37.112-64.811 153.968 153.968 0 0 0 23.988-82.775z" fill="#5ebef7"/><path d="m291.95 29.11a21.179 21.179 0 0 1 -21.18 20.91h-40.05a16.115 16.115 0 0 1 -16.12-16.12 15.9 15.9 0 0 1 .81-5.05 156.635 156.635 0 0 1 36.77-4.61 154.781 154.781 0 0 1 39.77 4.87z" fill="#b5cf7f"/><path d="m330.64 158.81a19.342 19.342 0 0 1 -19.34 19.34h-90.25a12.89 12.89 0 1 0 0 25.78h6.45a19.34 19.34 0 0 1 0 38.68h-115.27a155.5 155.5 0 0 1 15.3-154.11l138.65-.6a12.89 12.89 0 1 1 0 25.78h-19.34a12.9 12.9 0 0 0 0 25.79h64.46a19.342 19.342 0 0 1 19.34 19.34z" fill="#5ebef7"/><path d="m398.9 126.57h-37.55a11.369 11.369 0 0 1 -11.37-11.37 14.408 14.408 0 0 0 -14.41-14.41h-4.93a12.9 12.9 0 0 1 0-25.79h37.23a154.422 154.422 0 0 1 31.03 51.57z" fill="#5ebef7"/><path d="m405.86 204.74a153.575 153.575 0 0 1 -21.85 56.98q-4.65 7.32-9.17 14.73h-8.14a10.277 10.277 0 0 1 -10.27-10.28 10.281 10.281 0 0 0 -10.34-10.27l-9.01.05c-.12 0-.24.01-.36.01a12.539 12.539 0 0 1 -12.53-12.54 12.889 12.889 0 0 0 -12.89-12.9 12.89 12.89 0 1 1 0-25.78z" fill="#5ebef7"/><path d="m330.64 158.81a19.342 19.342 0 0 1 -19.34 19.34h-90.25a12.89 12.89 0 1 0 0 25.78h6.45a19.34 19.34 0 0 1 0 38.68h-115.27a155.5 155.5 0 0 1 15.3-154.11l138.65-.6a12.89 12.89 0 1 1 0 25.78h-19.34a12.9 12.9 0 0 0 0 25.79h64.46a19.342 19.342 0 0 1 19.34 19.34z" fill="#b5cf7f"/><path d="m405.86 204.74a153.575 153.575 0 0 1 -21.85 56.98q-4.65 7.32-9.17 14.73h-8.14a10.277 10.277 0 0 1 -10.27-10.28 10.281 10.281 0 0 0 -10.34-10.27l-9.01.05c-.12 0-.24.01-.36.01a12.539 12.539 0 0 1 -12.53-12.54 12.889 12.889 0 0 0 -12.89-12.9 12.89 12.89 0 1 1 0-25.78z" fill="#b5cf7f"/><path d="m398.9 126.57h-37.55a11.369 11.369 0 0 1 -11.37-11.37 14.408 14.408 0 0 0 -14.41-14.41h-4.93a12.9 12.9 0 0 1 0-25.79h37.23a154.422 154.422 0 0 1 31.03 51.57z" fill="#b5cf7f"/><path d="m285.516 275.648h-43.516a20.952 20.952 0 0 0 -20.95 20.952 4.835 4.835 0 0 1 -4.835 4.835h-4.834a16.117 16.117 0 0 0 -16.117 16.116 16.117 16.117 0 0 0 16.117 16.117h40.05a21.192 21.192 0 0 0 21.192-21.192 11.04 11.04 0 0 1 11.04-11.041h1.853a12.893 12.893 0 0 0 12.893-12.893 12.893 12.893 0 0 0 -12.893-12.894z" fill="#b5cf7f"/><path d="m192 448 12.01 15.012a66.579 66.579 0 0 0 51.99 24.988 66.579 66.579 0 0 0 51.99-24.988l12.01-15.012z" fill="#dcdbd6"/><g fill="#ffc864"><path d="m63.994 112a7.973 7.973 0 0 1 -3.572-.847l-32-16a8 8 0 0 1 7.156-14.31l32 16a8 8 0 0 1 -3.584 15.157z"/><path d="m32.006 240a8 8 0 0 1 -3.584-15.157l32-16a8 8 0 0 1 7.156 14.31l-32 16a7.973 7.973 0 0 1 -3.572.847z"/><path d="m64 168h-40a8 8 0 0 1 0-16h40a8 8 0 0 1 0 16z"/><path d="m448.006 112a8 8 0 0 1 -3.584-15.157l32-16a8 8 0 1 1 7.156 14.31l-32 16a7.973 7.973 0 0 1 -3.572.847z"/><path d="m479.994 240a7.973 7.973 0 0 1 -3.572-.847l-32-16a8 8 0 0 1 7.156-14.31l32 16a8 8 0 0 1 -3.584 15.157z"/><path d="m488 168h-40a8 8 0 0 1 0-16h40a8 8 0 0 1 0 16z"/></g></g></svg>