<svg height="512" viewBox="0 0 512 512" width="512" xmlns="http://www.w3.org/2000/svg"><g id="flat"><path d="m162.38 416h-114.38a32 32 0 0 1 0-64h32.38a8 8 0 0 1 0 16h-32.38a16 16 0 0 0 0 32h114.38a8 8 0 0 1 0 16z" fill="#768753"/><path d="m456 368h-135a8 8 0 0 1 0-16h135a24 24 0 0 0 0-48h-16a8 8 0 0 1 0-16h16a40 40 0 0 1 0 80z" fill="#768753"/><circle cx="200.283" cy="255.717" fill="#5ebef7" r="165.283"/><g fill="#b5cf7f"><path d="m282.923 234.2a20.656 20.656 0 0 1 -20.66 20.66h-96.41a13.775 13.775 0 0 0 0 27.55h6.88a20.66 20.66 0 1 1 0 41.32h-123.133a165.509 165.509 0 0 1 16.61-164.7l147.84-.59a13.775 13.775 0 1 1 0 27.55h-20.66a13.775 13.775 0 0 0 0 27.55h68.87a20.66 20.66 0 0 1 20.663 20.66z"/><path d="m363.283 283.26a164.5 164.5 0 0 1 -34.67 76.62h-7.16a10.977 10.977 0 0 1 -10.98-10.98 10.979 10.979 0 0 0 -11.04-10.98l-9.63.06c-.13 0-.25.01-.38.01a13.407 13.407 0 0 1 -13.39-13.41 13.759 13.759 0 0 0 -13.77-13.77 13.775 13.775 0 0 1 0-27.55z"/><path d="m355.843 199.77h-40.11a12.155 12.155 0 0 1 -12.15-12.15 15.394 15.394 0 0 0 -15.4-15.4h-5.26a13.775 13.775 0 0 1 0-27.55h39.777a165.059 165.059 0 0 1 33.143 55.1z"/><path d="m248.493 372.79a13.781 13.781 0 0 1 -13.78 13.78h-1.97a11.8 11.8 0 0 0 -11.8 11.79 22.632 22.632 0 0 1 -22.34 22.63 164.914 164.914 0 0 1 -59.37-11.63 17.209 17.209 0 0 1 16.29-22.79h5.16a5.19 5.19 0 0 0 5.17-5.17 22.38 22.38 0 0 1 22.38-22.38h46.48a13.793 13.793 0 0 1 13.78 13.77z"/><path d="m241.593 95.63a22.628 22.628 0 0 1 -22.63 22.35h-42.78a17.217 17.217 0 0 1 -16.37-22.56 166.647 166.647 0 0 1 81.78.21z"/></g><path d="m349.943 120-11.9 47.824a91.7 91.7 0 0 0 58.947 108.784l50.471 17.5 11.66-34.358a91.7 91.7 0 0 0 -49.586-113.259z" fill="#768753"/><path d="m450.92 283.92-3.46 10.19-11.37-3.94-37-66.04-59.68-7.09a91.147 91.147 0 0 1 -3.49-16.53l53.51 6.35-42.31-75.53 2.82-11.33 12.21 5.43 43.7 78.01 6.6-55.59a91.336 91.336 0 0 1 15.02 9.18l-8.27 69.69c-.02.15-.05.29-.08.43z" fill="#667447"/><path d="m291.38 340.941 7.368-16.122a90.006 90.006 0 0 1 118.432-44.825l19.3 8.581 4.884 5.535 1.668 9.2-4.063 8.583a90.006 90.006 0 0 1 -121.469 42.053z" fill="#91a666"/><path d="m447.65 293.54-4.62 9.77-141.21 42.83-10.44-5.2 4.43-9.7 62.61-18.99-28.54-24.38a90.643 90.643 0 0 1 14.98-8.24l31.73 27.11 59.89-18.17z" fill="#768753"/></g></svg>