<svg height="512" viewBox="0 0 512 512" width="512" xmlns="http://www.w3.org/2000/svg"><g id="flat"><path d="m99.017 280a165.283 165.283 0 1 0 319.4 0z" fill="#5ebef7"/><path d="m306.92 439.79a13.772 13.772 0 0 1 -13.77 13.78h-1.98a11.779 11.779 0 0 0 -11.79 11.79 22.632 22.632 0 0 1 -22.34 22.63 165.01 165.01 0 0 1 -59.38-11.63 17.234 17.234 0 0 1 16.29-22.79h5.17a5.173 5.173 0 0 0 5.16-5.17 22.382 22.382 0 0 1 22.39-22.38h46.48a13.776 13.776 0 0 1 13.77 13.77z" fill="#a6deff"/><path d="m340.98 301.87a21.433 21.433 0 0 1 -21.43 21.44h-92.36a13.475 13.475 0 1 0 0 26.95h1.66a19.155 19.155 0 0 1 0 38.31h-121.78a165.873 165.873 0 0 1 -8.05-108.57h110.49l110.04.44a21.441 21.441 0 0 1 21.43 21.43z" fill="#a6deff"/><path d="m421.72 350.26a164.494 164.494 0 0 1 -34.43 76.32l-7.41.3a10.977 10.977 0 0 1 -10.97-10.98 10.988 10.988 0 0 0 -11.05-10.98l-9.62.06c-.13 0-.25.01-.38.01a13.407 13.407 0 0 1 -13.39-13.41 13.759 13.759 0 0 0 -13.77-13.77 13.775 13.775 0 1 1 0-27.55z" fill="#a6deff"/><path d="m325 233-13 23v24h88v-24l8-25z" fill="#dcdbd6"/><path d="m312 256h88l8-25-83.33 1z" fill="#bbbab6"/><path d="m421.72 350.26a164.494 164.494 0 0 1 -34.43 76.32l-7.41.3a10.977 10.977 0 0 1 -10.97-10.98 10.988 10.988 0 0 0 -11.05-10.98l-9.62.06c-.13 0-.25.01-.38.01a13.407 13.407 0 0 1 -13.39-13.41 13.759 13.759 0 0 0 -13.77-13.77 13.775 13.775 0 1 1 0-27.55z" fill="#b5cf7f"/><path d="m306.92 439.79a13.772 13.772 0 0 1 -13.77 13.78h-1.98a11.779 11.779 0 0 0 -11.79 11.79 22.632 22.632 0 0 1 -22.34 22.63 165.01 165.01 0 0 1 -59.38-11.63 17.234 17.234 0 0 1 16.29-22.79h5.17a5.173 5.173 0 0 0 5.16-5.17 22.382 22.382 0 0 1 22.39-22.38h46.48a13.776 13.776 0 0 1 13.77 13.77z" fill="#b5cf7f"/><path d="m424 248h-96l-16-48h96z" fill="#0a71cd"/><path d="m395.1 232 5.33 16h-16.86l-5.34-16h-15.13l5.33 16h-16.87l-5.33-16h-23.56l-5.34-16h23.57l-5.33-16h16.86l5.34 16h15.13l-5.33-16h16.87l5.33 16h23.56l5.34 16z" fill="#0a71cd"/><path d="m418.67 232-5.34-16h-23.56l-5.33-16h-16.87l5.33 16h-15.13l-5.34-16h-16.86l5.33 16h-23.57l5.34 16h23.56l5.33 16h16.87l-5.33-16h15.13l5.34 16h16.86l-5.33-16z" fill="#005dbb"/><path d="m128 152-8 128h48l-8-128z" fill="#dcdbd6"/><path d="m161.06 168.88a24 24 0 0 1 -34.12 0l1.06-16.88h32z" fill="#bbbab6"/><path d="m166.5 256h-45l1-16h43z" fill="#bbbab6"/><path d="m136.894 149.129-6.5-29.27a77.249 77.249 0 0 1 13.606-63.106 77.249 77.249 0 0 1 13.61 63.106l-6.5 29.27z" fill="#eae9e4"/><path d="m147.553 155.283-22.1 20.267a77.247 77.247 0 0 1 -61.453 19.767 77.245 77.245 0 0 1 47.847-43.34l28.6-9z" fill="#eae9e4"/><path d="m147.553 142.975 28.6 9a77.245 77.245 0 0 1 47.847 43.342 77.247 77.247 0 0 1 -61.457-19.767l-22.1-20.267z" fill="#eae9e4"/><path d="m155.19 130.77-3.04 13.66-1.04 4.7h-14.22l-1.04-4.7-3.04-13.66a23.987 23.987 0 0 1 22.38 0z" fill="#eae9e4"/><path d="m147.55 155.28-3.55 3.26-14.06 12.9a23.941 23.941 0 0 1 -9.94-19.44 25.294 25.294 0 0 1 .14-2.63l15.71-4.94 4.6-1.45 3.55 6.15z" fill="#eae9e4"/><path d="m168 152a23.941 23.941 0 0 1 -9.94 19.44l-14.06-12.9-3.55-3.26 3.55-6.15 3.55-6.15 4.6 1.45 15.71 4.94a25.294 25.294 0 0 1 .14 2.63z" fill="#eae9e4"/><path d="m168 152a23.941 23.941 0 0 1 -9.94 19.44l-14.06-12.9-14.06 12.9a23.941 23.941 0 0 1 -9.94-19.44 25.294 25.294 0 0 1 .14-2.63l15.71-4.94-3.04-13.66a23.987 23.987 0 0 1 22.38 0l-3.04 13.66 15.71 4.94a25.294 25.294 0 0 1 .14 2.63z" fill="#dcdbd6"/><circle cx="144" cy="152" fill="#eae9e4" r="16"/><path d="m264 224 16 24v32h-32v-32z" fill="#eae9e4"/><path d="m248 248h-48l16-24h48z" fill="#007af6"/><path d="m200 248h48v32h-48z" fill="#dcdbd6"/><path d="m166.5 256h-45l1-16h43z" fill="#91a666"/><g fill="#ee9d0d"><circle cx="266.627" cy="90.627" r="25"/><path d="m266.756 49.351h-.021a8 8 0 0 1 -7.979-8.021l.036-14.079a8 8 0 1 1 16 .042l-.036 14.079a8 8 0 0 1 -8 7.979z"/><path d="m231.875 63.693a7.972 7.972 0 0 1 -5.672-2.358l-9.93-9.981a8 8 0 0 1 11.344-11.285l9.929 9.982a8 8 0 0 1 -5.671 13.642z"/><path d="m217.352 98.5h-.022l-14.079-.037a8 8 0 0 1 .021-16h.021l14.079.037a8 8 0 0 1 -.02 16z"/><path d="m221.711 143.309a8 8 0 0 1 -5.642-13.672l9.982-9.929a8 8 0 1 1 11.284 11.343l-9.981 9.929a7.977 7.977 0 0 1 -5.643 2.329z"/><path d="m266.462 161.981h-.022a8 8 0 0 1 -7.979-8.021l.037-14.078a8 8 0 0 1 8-7.979h.021a8 8 0 0 1 7.979 8.021l-.037 14.076a8 8 0 0 1 -7.999 7.981z"/><path d="m311.309 143.542a7.975 7.975 0 0 1 -5.672-2.357l-9.929-9.982a8 8 0 1 1 11.343-11.284l9.929 9.981a8 8 0 0 1 -5.671 13.642z"/><path d="m329.982 98.792h-.022l-14.078-.036a8 8 0 0 1 .02-16h.022l14.076.036a8 8 0 0 1 -.02 16z"/><path d="m301.561 63.875a8 8 0 0 1 -5.642-13.675l9.981-9.93a8 8 0 0 1 11.285 11.344l-9.985 9.932a7.973 7.973 0 0 1 -5.639 2.329z"/></g><path d="m465.889 168a24 24 0 0 0 -3.49-35.2 40.007 40.007 0 0 0 -75.283-4.3 24.039 24.039 0 0 0 -17.768 15.57c-.445-.037-.893-.068-1.348-.068a16 16 0 0 0 -13.859 24z" fill="#a6deff"/><path d="m340.98 301.87a21.433 21.433 0 0 1 -21.43 21.44h-92.36a13.475 13.475 0 1 0 0 26.95h1.66a19.155 19.155 0 0 1 0 38.31h-121.78a165.873 165.873 0 0 1 -8.05-108.57h110.49l110.04.44a21.441 21.441 0 0 1 21.43 21.43z" fill="#b5cf7f"/></g></svg>