<svg height="512" viewBox="0 0 512 512" width="512" xmlns="http://www.w3.org/2000/svg"><g id="flat"><path d="m112 176h232v224h-232z" fill="#dcdbd6"/><path d="m128 128h160v48h-160z" fill="#cdccc8"/><path d="m128 80h176v48h-176z" fill="#dcdbd6"/><path d="m24 272h56v32h-56z" fill="#bbbab6"/><path d="m64 272h16v32h-16z" fill="#aeadaa"/><path d="m248 208-80 88h40l-24 72 96-96h-40z" fill="#ee9d0d"/><g fill="#aeadaa"><path d="m152 216h-40a8 8 0 0 1 0-16h40a8 8 0 0 1 0 16z"/><path d="m144 248h-32a8 8 0 0 1 0-16h32a8 8 0 0 1 0 16z"/><path d="m136 280h-24a8 8 0 0 1 0-16h24a8 8 0 0 1 0 16z"/><path d="m136 312h-24a8 8 0 0 1 0-16h24a8 8 0 0 1 0 16z"/><path d="m144 344h-32a8 8 0 0 1 0-16h32a8 8 0 0 1 0 16z"/><path d="m152 376h-40a8 8 0 0 1 0-16h40a8 8 0 0 1 0 16z"/><path d="m344 216h-40a8 8 0 0 1 0-16h40a8 8 0 0 1 0 16z"/><path d="m344 248h-32a8 8 0 0 1 0-16h32a8 8 0 0 1 0 16z"/><path d="m344 280h-24a8 8 0 0 1 0-16h24a8 8 0 0 1 0 16z"/><path d="m344 312h-24a8 8 0 0 1 0-16h24a8 8 0 0 1 0 16z"/><path d="m344 344h-32a8 8 0 0 1 0-16h32a8 8 0 0 1 0 16z"/><path d="m344 376h-40a8 8 0 0 1 0-16h40a8 8 0 0 1 0 16z"/></g><path d="m136 400h176v32h-176z" fill="#bbbab6"/><path d="m98 176a18 18 0 0 0 -18 18v188a18 18 0 0 0 18 18h14v-224z" fill="#bbbab6"/><path d="m128 160h160v16h-160z" fill="#bbbab6"/><path d="m336 176h16v224h-16z" fill="#aeadaa"/><path d="m112 176h8v224h-8z" fill="#aeadaa"/><path d="m370 152h48a70 70 0 0 1 70 70v132a70 70 0 0 1 -70 70h-48a26 26 0 0 1 -26-26v-220a26 26 0 0 1 26-26z" fill="#bbbab6"/></g></svg>