<svg height="512" viewBox="0 0 512 512" width="512" xmlns="http://www.w3.org/2000/svg"><g id="flat"><rect fill="#dcdbd6" height="336" rx="30" width="240" x="136" y="120"/><path d="m344 24h-176a16 16 0 0 0 0 32v64h176v-64a16 16 0 0 0 0-32zm-88 64a16 16 0 1 1 16-16 16 16 0 0 1 -16 16z" fill="#91a666"/><path d="m168 456h176v32h-176z" fill="#768753"/><path d="m200 432h-16a8 8 0 0 1 0-16h16a8 8 0 0 1 0 16z" fill="#eae9e4"/><path d="m304 432h-72a8 8 0 0 1 0-16h72a8 8 0 0 1 0 16z" fill="#eae9e4"/><path d="m331.809 217.442-31.5 5.146a59.4 59.4 0 0 0 -49.667 62.9l2.489 34.512 23.428-1.847a59.4 59.4 0 0 0 54.724-58.472z" fill="#768753"/><path d="m331.809 217.442-.169 13.37-.351 27.99-.01.88a59.341 59.341 0 0 1 -2.56 16.57l-41.319 12.22-23.541 30.68-10.729.848-.871-12.02 27.04-35.24-10.25-34.67a59.323 59.323 0 0 1 13.79-9.76l8.5 28.73 28.94-37.71z" fill="#768753"/><path d="m331.64 230.812-27.681 36.08 27.33-8.09-.01.88a59.341 59.341 0 0 1 -2.56 16.57l-41.319 12.22-23.541 30.68-10.729.848-.871-12.02 27.04-35.24-10.25-34.67a59.323 59.323 0 0 1 13.79-9.76l8.5 28.73 28.94-37.71 11.53-1.89z" fill="#667447"/><path d="m185.346 239.087 11.479.263a58.3 58.3 0 0 1 56.961 59.019l-.272 21.6-13.141-.478a58.3 58.3 0 0 1 -56.089-61.537z" fill="#91a666"/><path d="m253.669 307.742-.16 12.23-10.78-.39-58.04-68.86.66-11.64 10.67.25 22.381 26.56 5.889-18.96a58.6 58.6 0 0 1 13.47 10.56l-7.119 22.92z" fill="#91a666"/><g fill="#768753"><path d="m253.669 307.742-.16 12.23-10.78-.39-58.04-68.86.66-11.64 10.67.25 22.381 26.56 5.889-18.96a58.6 58.6 0 0 1 13.47 10.56l-7.119 22.92z"/><path d="m168 103.432h176v16.568h-176z"/></g></g></svg>