<svg height="512" viewBox="0 0 512 512" width="512" xmlns="http://www.w3.org/2000/svg"><g id="flat"><path d="m474.981 215.283a53 53 0 0 1 -41.422-32.427q-.113-.273-.227-.546a53.117 53.117 0 0 1 6.3-52.364l3.04-4.054-56.564-56.568-4.054 3.04a53.117 53.117 0 0 1 -52.364 6.3l-.547-.227a53 53 0 0 1 -32.426-41.422l-.717-5.015h-80l-.715 5.008a53.009 53.009 0 0 1 -32.447 41.433l-.547.227a53.121 53.121 0 0 1 -52.355-6.311l-4.044-3.033-56.568 56.568 3.033 4.044a53.121 53.121 0 0 1 6.311 52.355c-.076.182-.151.365-.227.547a53.009 53.009 0 0 1 -41.433 32.447l-5.008.715v80l5.008.715a53.009 53.009 0 0 1 41.433 32.447c.076.182.151.364.227.547a53.119 53.119 0 0 1 -6.311 52.354l-3.033 4.045 56.568 56.568 4.044-3.033a53.121 53.121 0 0 1 52.355-6.311l.547.227a53.009 53.009 0 0 1 32.447 41.433l.715 5.008h80l.715-5.008a53.009 53.009 0 0 1 32.447-41.433l.547-.227a53.121 53.121 0 0 1 52.355 6.311l4.044 3.033 56.568-56.568-3.033-4.045a53.119 53.119 0 0 1 -6.311-52.354c.076-.183.151-.365.227-.547a53.009 53.009 0 0 1 41.433-32.447l5.008-.715v-80zm-96.173 76.949a128 128 0 1 1 -86.576-158.973 128 128 0 0 1 86.576 158.973z" fill="#dcdbd6"/><path d="m290.106 420.384a8 8 0 0 1 -1.688-15.821 152.021 152.021 0 0 0 63.2-30.327 8 8 0 1 1 10.076 12.428 168.1 168.1 0 0 1 -69.883 33.536 8.043 8.043 0 0 1 -1.705.184z" fill="#bbbab6"/><path d="m382.722 361.779a8 8 0 0 1 -6.323-12.894 151.757 151.757 0 0 0 10.468-15.4 8 8 0 0 1 13.762 8.161 167.761 167.761 0 0 1 -11.573 17.031 7.988 7.988 0 0 1 -6.334 3.102z" fill="#bbbab6"/><path d="m209.646 179.867a8 8 0 0 1 -3.844-15.021 103.518 103.518 0 0 1 58.779-12.382 8 8 0 0 1 -1.381 15.936 87.591 87.591 0 0 0 -49.724 10.482 7.966 7.966 0 0 1 -3.83.985z" fill="#a6deff"/><path d="m178.716 206.7a8 8 0 0 1 -6.411-12.778c1.852-2.488 3.844-4.926 5.921-7.244a8 8 0 0 1 11.918 10.676c-1.756 1.96-3.44 4.019-5 6.123a7.993 7.993 0 0 1 -6.428 3.223z" fill="#a6deff"/><path d="m342.4 206.278-37.3 6.094a70.335 70.335 0 0 0 -58.814 74.482l2.952 40.868 27.743-2.187a70.335 70.335 0 0 0 64.8-69.241z" fill="#768753"/><path d="m342.234 219.638-36.74 47.89 36.28-10.73a70.23 70.23 0 0 1 -2.54 17.44l-50.3 14.88-28.97 37.76-10.73.84-.87-12.01 33.49-43.64-12.57-42.48a69.737 69.737 0 0 1 13.81-9.74l10.8 36.52 36.98-48.21 11.53-1.88z" fill="#667447"/><path d="m168.965 231.909 13.592.311a69.039 69.039 0 0 1 67.453 69.89l-.322 25.58-15.562-.567a69.038 69.038 0 0 1 -66.419-72.871z" fill="#91a666"/><path d="m249.844 315.468-.16 12.22-10.79-.39-70.59-83.75.66-11.64 10.67.24 29.08 34.51 7.67-24.7a68.906 68.906 0 0 1 13.48 10.53l-8.91 28.7z" fill="#768753"/></g></svg>