<svg height="512" viewBox="0 0 512 512" width="512" xmlns="http://www.w3.org/2000/svg"><g id="flat"><path d="m256 56a175 175 0 0 0 -175 175h.006-.006v167.552c0 8.615 6.621 16.028 15.227 16.434a16 16 0 0 0 16.773-15.986 24 24 0 0 1 48 0v55.548c0 8.615 6.621 16.028 15.227 16.434a16 16 0 0 0 16.773-15.982v-32a24 24 0 0 1 24-24h4.583a19.417 19.417 0 0 1 19.417 19.421c0 15.257 11.962 28.154 27.213 28.572a28 28 0 0 0 28.787-27.993 20.008 20.008 0 0 1 13.255-18.834 75.246 75.246 0 0 0 17.783-8.858s42.041-25.421 55.962-40.967a175 175 0 0 0 -128-294.341z" fill="#5ebef7"/><path d="m328 199h-80a16 16 0 0 1 0-32h24a16 16 0 0 0 0-32h-162.34a174.159 174.159 0 0 0 -28.66 96v96h143a24 24 0 0 0 0-48h-8a16 16 0 0 1 0-32h112a24 24 0 0 0 0-48zm16 88a16 16 0 1 0 0 32 16 16 0 0 1 16 16 15.565 15.565 0 0 0 15.55 15.57c.15 0 .29-.01.44-.01l8.01-.22a174.837 174.837 0 0 0 37.85-63.34zm46.47-168h-38.47a16 16 0 1 0 0 32h6.11a17.89 17.89 0 0 1 17.89 17.89 14.1 14.1 0 0 0 14.11 14.11h33.89v-1.15a174.427 174.427 0 0 0 -33.53-62.85z" fill="#b5cf7f"/><g fill="#a6deff"><path d="m112 231a8 8 0 0 1 -8-8v-8a8 8 0 0 1 16 0v8a8 8 0 0 1 -8 8z"/><path d="m112 303a8 8 0 0 1 -8-8v-40a8 8 0 0 1 16 0v40a8 8 0 0 1 -8 8z"/></g></g></svg>