<svg height="512" viewBox="0 0 512 512" width="512" xmlns="http://www.w3.org/2000/svg"><g id="flat"><path d="m124.036 445.885h-4.177l-41.711-28-4.148-43.761 35.74-47.239 33.119-5.885h224l32 5.885 44 47.239-8 40.761-44 32z" fill="#fdc9a6"/><path d="m368.109 371.65 19.44 19.23-2.35 2.35a42 42 0 0 0 -4.74 53.65h10.4l6.65-4.44a7.49 7.49 0 0 0 -.99-1.21 25.965 25.965 0 0 1 0-36.69l8-8a8 8 0 0 0 0-11.31l-23.95-24.38c-3.12-3.12-9.98-3.81-13.1-.68s-2.48 8.36.64 11.48z" fill="#fdc9a6"/><path d="m368.109 371.65 19.44 19.23-2.35 2.35a42 42 0 0 0 -4.74 53.65h10.4l6.65-4.44a7.49 7.49 0 0 0 -.99-1.21 25.965 25.965 0 0 1 0-36.69l8-8a8 8 0 0 0 0-11.31l-23.95-24.38c-3.12-3.12-9.98-3.81-13.1-.68s-2.48 8.36.64 11.48z" fill="#f6bb92"/><path d="m410.352 273.835a154.717 154.717 0 1 0 -154.717 154.717" fill="#5ebef7"/><path d="m142.75 370.65-19.44 19.23 2.35 2.35a42 42 0 0 1 4.74 53.65h-10.4l-6.65-4.44a7.49 7.49 0 0 1 .99-1.21 25.965 25.965 0 0 0 0-36.69l-8-8a8 8 0 0 1 0-11.31l23.95-24.38c3.12-3.12 9.98-3.81 13.1-.68s2.48 8.36-.64 11.48z" fill="#fdc9a6"/><path d="m142.75 370.65-19.44 19.23 2.35 2.35a42 42 0 0 1 4.74 53.65h-10.4l-6.65-4.44a7.49 7.49 0 0 1 .99-1.21 25.965 25.965 0 0 0 0-36.69l-8-8a8 8 0 0 1 0-11.31l23.95-24.38c3.12-3.12 9.98-3.81 13.1-.68s2.48 8.36-.64 11.48z" fill="#f6bb92"/><path d="m256 128h-.131a8 8 0 0 1 -7.869-8.13l-.059-58.115c.072-4.417 4.71-3.964 9.128-3.869 4.418.071 6.941-.289 6.87 4.129l.061 58.115a8 8 0 0 1 -8 7.87z" fill="#91a666"/><circle cx="255.224" cy="272.835" fill="#5ebef7" r="154.717"/><g fill="#b5cf7f"><path d="m293.89 122.99a21.166 21.166 0 0 1 -21.18 20.91h-40.05a16.116 16.116 0 0 1 -15.33-21.1 155.844 155.844 0 0 1 76.56.19z"/><path d="m226.8 328.6h-115.93a154.914 154.914 0 0 1 24.93-154.13l129.68-.59a12.9 12.9 0 1 1 0 25.79h-19.34a12.9 12.9 0 0 0 0 25.79h64.46a19.34 19.34 0 1 1 0 38.68h-90.25a12.89 12.89 0 0 0 0 25.78h6.45a19.34 19.34 0 1 1 0 38.68z"/><path d="m400.84 220.46h-37.55a11.369 11.369 0 0 1 -11.37-11.37 14.417 14.417 0 0 0 -14.41-14.42h-4.93a12.89 12.89 0 1 1 0-25.78h37.23a154.521 154.521 0 0 1 31.03 51.57z"/><path d="m408.48 294.17a153.841 153.841 0 0 1 -29.64 71.71h-10.2a10.277 10.277 0 0 1 -10.27-10.27 10.283 10.283 0 0 0 -10.34-10.28l-9.01.06h-.34a12.541 12.541 0 0 1 -12.54-12.54 12.906 12.906 0 0 0 -12.9-12.89 12.9 12.9 0 0 1 0-25.79z"/><path d="m330.96 385.23a16.64 16.64 0 0 1 -16.64 16.64h-2.39a14.237 14.237 0 0 0 -14.25 14.25 27.419 27.419 0 0 1 -.6 5.7 155.481 155.481 0 0 1 -98.4-4.93 20.794 20.794 0 0 1 19.98-15.02h6.23a6.248 6.248 0 0 0 6.24-6.24 27.036 27.036 0 0 1 27.04-27.03h56.15a16.627 16.627 0 0 1 16.64 16.63z"/><path d="m330.96 386.23a16.64 16.64 0 0 1 -16.64 16.64h-2.39a14.237 14.237 0 0 0 -14.25 14.25 27.419 27.419 0 0 1 -.6 5.7 155.481 155.481 0 0 1 -98.4-4.93 20.794 20.794 0 0 1 19.98-15.02h6.23a6.248 6.248 0 0 0 6.24-6.24 27.036 27.036 0 0 1 27.04-27.03h56.15a16.627 16.627 0 0 1 16.64 16.63z"/></g><path d="m116.008 429.885 43.821-50.085a19.944 19.944 0 0 1 26.975-2.822 19.944 19.944 0 0 1 3.043 29.087l-41.839 47.816h-.7a32.321 32.321 0 0 1 -30.663-22.1z" fill="#fdc9a6"/><path d="m194.78 392.96a19.827 19.827 0 0 1 -4.93 13.11l-41.84 47.81h-.71a32.207 32.207 0 0 1 -17.59-5.21 32.173 32.173 0 0 0 10.21 1.66h.7l41.84-47.81a19.946 19.946 0 0 0 -2.87-28.95 19.937 19.937 0 0 1 15.19 19.39z" fill="#f6bb92"/><path d="m188.008 468.074a32.322 32.322 0 0 0 37.79 16.631 7.46 7.46 0 0 0 3.681-2.4l32.621-39.146a16.559 16.559 0 0 0 2.987-15.835 16.556 16.556 0 0 0 -20.477-10.618l-28.61 19.368z" fill="#fdc9a6"/><path d="m188.008 468.074a32.322 32.322 0 0 0 37.79 16.631 7.46 7.46 0 0 0 3.681-2.4l32.621-39.146a16.559 16.559 0 0 0 2.987-15.835 16.556 16.556 0 0 0 -20.477-10.618l-28.61 19.368z" fill="#fdc9a6"/><path d="m262.1 443.16-32.62 39.15a7.528 7.528 0 0 1 -3.68 2.4 32.3 32.3 0 0 1 -24.05-2.54 32.178 32.178 0 0 0 16.05-.44 7.46 7.46 0 0 0 3.68-2.4l32.62-39.15a16.55 16.55 0 0 0 -3.14-24.1 16.553 16.553 0 0 1 11.14 27.08z" fill="#f6bb92"/><path d="m148.008 453.885 51.821-57.185a19.944 19.944 0 0 1 26.975-2.822 19.945 19.945 0 0 1 3.043 29.088l-49.839 54.923h-.7a32.321 32.321 0 0 1 -30.663-22.1z" fill="#fdc9a6"/><path d="m234.78 409.85a19.827 19.827 0 0 1 -4.93 13.11l-49.84 54.92h-.71a32.116 32.116 0 0 1 -16.44-4.5 32.177 32.177 0 0 0 8.64 1.18h.7l49.84-54.92a19.958 19.958 0 0 0 -3.04-29.09c-.14-.11-.29-.21-.44-.32a19.955 19.955 0 0 1 16.22 19.62z" fill="#f6bb92"/><path d="m257.941 64-7.834-19.586a32.476 32.476 0 0 0 -30.153-20.414h-34.013l7.834 19.586a32.477 32.477 0 0 0 30.153 20.414z" fill="#91a666"/><path d="m321.941 24h-23.471a43.323 43.323 0 0 0 -37.149 21.033l-11.38 18.967h23.472a43.321 43.321 0 0 0 37.148-21.033z" fill="#b5cf7f"/><path d="m394.851 430.885-43.821-50.085a19.944 19.944 0 0 0 -26.975-2.822 19.943 19.943 0 0 0 -3.042 29.087l41.838 47.816h.7a32.32 32.32 0 0 0 30.663-22.1z" fill="#fdc9a6"/><path d="m316.079 393.96a19.827 19.827 0 0 0 4.93 13.11l41.84 47.81h.71a32.207 32.207 0 0 0 17.59-5.21 32.173 32.173 0 0 1 -10.21 1.66h-.7l-41.839-47.81a19.946 19.946 0 0 1 2.87-28.95 19.937 19.937 0 0 0 -15.19 19.39z" fill="#f6bb92"/><path d="m322.851 469.074a32.322 32.322 0 0 1 -37.79 16.631 7.46 7.46 0 0 1 -3.681-2.4l-32.625-39.149a16.559 16.559 0 0 1 -2.987-15.835 16.556 16.556 0 0 1 20.477-10.618l28.614 19.368z" fill="#fdc9a6"/><path d="m248.759 444.16 32.62 39.15a7.528 7.528 0 0 0 3.68 2.4 32.3 32.3 0 0 0 24.05-2.54 32.178 32.178 0 0 1 -16.05-.44 7.46 7.46 0 0 1 -3.68-2.4l-32.62-39.15a16.55 16.55 0 0 1 3.14-24.1 16.553 16.553 0 0 0 -11.14 27.08z" fill="#f6bb92"/><path d="m362.851 454.885-51.821-57.185a19.944 19.944 0 0 0 -26.975-2.822 19.944 19.944 0 0 0 -3.042 29.088l49.838 54.923h.7a32.32 32.32 0 0 0 30.663-22.1z" fill="#fdc9a6"/><path d="m276.079 410.85a19.827 19.827 0 0 0 4.93 13.11l49.84 54.92h.71a32.116 32.116 0 0 0 16.44-4.5 32.177 32.177 0 0 1 -8.64 1.18h-.7l-49.84-54.92a19.958 19.958 0 0 1 3.04-29.09c.14-.11.29-.21.44-.32a19.955 19.955 0 0 0 -16.22 19.62z" fill="#f6bb92"/></g></svg>