<svg height="512" viewBox="0 0 512 512" width="512" xmlns="http://www.w3.org/2000/svg"><g id="flat"><path d="m376 96-31.5 5.146a59.4 59.4 0 0 0 -49.667 62.9l2.493 34.512 23.429-1.847a59.4 59.4 0 0 0 54.724-58.472z" fill="#768753"/><path d="m376 96-.17 13.37-.35 27.99-.01.88a59.341 59.341 0 0 1 -2.56 16.57l-41.32 12.22-23.54 30.68-10.73.85-.87-12.02 27.04-35.24-10.25-34.67a59.323 59.323 0 0 1 13.79-9.76l8.5 28.73 28.94-37.71z" fill="#768753"/><path d="m375.83 109.37-27.68 36.08 27.33-8.09-.01.88a59.341 59.341 0 0 1 -2.56 16.57l-41.32 12.22-23.54 30.68-10.73.85-.87-12.02 27.04-35.24-10.25-34.67a59.323 59.323 0 0 1 13.79-9.76l8.5 28.73 28.94-37.71 11.53-1.89z" fill="#667447"/><path d="m376 256v56l-64-56v56l-64-56v88h-176v144h368v-176z" fill="#dcdbd6"/><path d="m88 184h48v128h-48z" fill="#dcdbd6"/><path d="m264 392h144v96h-144z" fill="#91a666"/><path d="m264 448h144v16h-144z" fill="#768753"/><path d="m264 416h144v16h-144z" fill="#768753"/><path d="m88 216h48v32h-48z" fill="#91a666"/><path d="m168 200h48v112h-48z" fill="#dcdbd6"/><g fill="#91a666"><path d="m168 232h48v32h-48z"/><path d="m200 440a16 16 0 0 1 16 16v32a0 0 0 0 1 0 0h-32a0 0 0 0 1 0 0v-32a16 16 0 0 1 16-16z"/><path d="m136 440a16 16 0 0 1 16 16v32a0 0 0 0 1 0 0h-32a0 0 0 0 1 0 0v-32a16 16 0 0 1 16-16z"/></g><path d="m128 400h16v16h-16z" fill="#768753"/><path d="m192 400h16v16h-16z" fill="#768753"/><path d="m64 344 16-32h168v32z" fill="#91a666"/><path d="m229.537 117.645 11.478.263a58.3 58.3 0 0 1 56.962 59.019l-.272 21.6-13.141-.478a58.3 58.3 0 0 1 -56.089-61.537z" fill="#91a666"/><path d="m297.86 186.3-.16 12.23-10.78-.39-58.04-68.86.66-11.64 10.67.25 22.38 26.56 5.89-18.96a58.6 58.6 0 0 1 13.47 10.56l-7.12 22.92z" fill="#91a666"/><path d="m297.86 186.3-.16 12.23-10.78-.39-58.04-68.86.66-11.64 10.67.25 22.38 26.56 5.89-18.96a58.6 58.6 0 0 1 13.47 10.56l-7.12 22.92z" fill="#768753"/><path d="m345.652 248a8 8 0 0 1 -2.979-15.428 103.947 103.947 0 1 0 -138.367-66.856 8 8 0 1 1 -15.336 4.564 120.005 120.005 0 1 1 159.656 77.144 8 8 0 0 1 -2.974.576z" fill="#91a666"/></g></svg>