<svg height="512" viewBox="0 0 512 512" width="512" xmlns="http://www.w3.org/2000/svg"><g id="flat"><path d="m353.026 137.161a53.592 53.592 0 0 0 -12.126-55.237 41.691 41.691 0 1 0 -76.823 0 53.592 53.592 0 0 0 -12.128 55.237 65.514 65.514 0 1 0 101.079 0z" fill="#91a666"/><path d="m332.144 157.657a8 8 0 0 0 -11.314-11.314l-10.343 10.343v-92.686a8 8 0 0 0 -16 0v52.687l-10.343-10.344a8 8 0 1 0 -11.314 11.314l21.657 21.656v49.374l-10.343-10.344a8 8 0 1 0 -11.314 11.314l21.657 21.656v68.687a8 8 0 0 0 16 0v-100.687z" fill="#5b3719"/><path d="m192 368 46.523-56.861a84.9 84.9 0 0 1 65.711-31.139 84.9 84.9 0 0 1 65.224 30.549l14.542 17.451-80 72z" fill="#a3612d"/><g fill="#fdc9a6"><path d="m304 400 83.39-76.873a30.283 30.283 0 0 1 39.122-4.734 30.283 30.283 0 0 1 7.581 43.161l-90.093 94.446-88 32-112-32h-72v-112l72 16 104 16z"/><path d="m144 360 25.75-25.75a75.968 75.968 0 0 1 53.716-22.25 103.922 103.922 0 0 1 46.478 10.972l10.056 5.028h56a24 24 0 0 1 24 24 24 24 0 0 1 -24 24h-88z"/></g></g></svg>