<svg height="512" viewBox="0 0 512 512" width="512" xmlns="http://www.w3.org/2000/svg"><g id="flat"><path d="m386.915 120.784a15.791 15.791 0 0 0 -10.915 15.171v64.045a24 24 0 0 1 -24 24h-64a24 24 0 0 1 -24-24v-64.045a15.791 15.791 0 0 0 -10.915-15.171 16.05 16.05 0 0 0 -21.085 15.216v264a24 24 0 0 0 24 24h128a24 24 0 0 0 24-24v-264a16.05 16.05 0 0 0 -21.085-15.216z" fill="#a6deff"/><path d="m376 328a8 8 0 0 1 -8-8v-32a8 8 0 0 1 16 0v32a8 8 0 0 1 -8 8z" fill="#92d1f7"/><path d="m376 360a8 8 0 0 1 -8-8v-8a8 8 0 0 1 16 0v8a8 8 0 0 1 -8 8z" fill="#92d1f7"/><circle cx="416" cy="424" fill="#ecebe6" r="56"/><path d="m461.255 378.746a64 64 0 1 0 18.745 45.254 63.578 63.578 0 0 0 -18.745-45.254zm-79.2 11.314a47.994 47.994 0 0 1 61.748-5.181l-66.93 66.93a47.994 47.994 0 0 1 5.181-61.748zm67.881 67.881a47.994 47.994 0 0 1 -61.748 5.181l66.93-66.93a47.994 47.994 0 0 1 -5.182 61.749z" fill="#ea2b2d"/><path d="m192.733 268.223h-112l-.733-120h112z" fill="#eae9e4"/><path d="m192.733 268.223a43.266 43.266 0 0 1 0 48 43.266 43.266 0 0 1 0 48 43.266 43.266 0 0 1 0 48 36.612 36.612 0 0 1 -37.466 8.845l-2.534-.845a35.778 35.778 0 0 1 -32 0l-2.533.845a36.614 36.614 0 0 1 -37.467-8.845 43.27 43.27 0 0 1 0-48 43.27 43.27 0 0 1 0-48 43.27 43.27 0 0 1 0-48z" fill="#a6deff"/><path d="m80 148.223-.245-1.08a43.778 43.778 0 0 1 20.168-47.234l12.81-7.686v-24h48v24l11.557 6.934a43.777 43.777 0 0 1 19.71 49.066z" fill="#a6deff"/><path d="m104.733 36.223h64v32h-64z" fill="#eae9e4"/><g fill="#92d1f7"><path d="m128.73 316.22a8 8 0 0 1 -8 8h-44.2a43.074 43.074 0 0 1 4.2-8 42.762 42.762 0 0 1 -4.2-8h44.2a8 8 0 0 1 8 8z"/><path d="m192.73 316.22a43.074 43.074 0 0 1 4.2 8h-36.2a8 8 0 0 1 0-16h36.2a42.762 42.762 0 0 1 -4.2 8z"/><path d="m128.73 364.22a8 8 0 0 1 -8 8h-44.2a43.074 43.074 0 0 1 4.2-8 42.762 42.762 0 0 1 -4.2-8h44.2a8 8 0 0 1 8 8z"/><path d="m192.73 364.22a43.074 43.074 0 0 1 4.2 8h-36.2a8 8 0 0 1 0-16h36.2a42.762 42.762 0 0 1 -4.2 8z"/><path d="m112.733 68.223h48v7.777h-48z"/></g></g></svg>