<svg height="512" viewBox="0 0 512 512" width="512" xmlns="http://www.w3.org/2000/svg"><g id="flat"><path d="m232 424h48v64h-48z" fill="#dcdbd6"/><path d="m232 421.656h48v31.334h-48z" fill="#bbbab6"/><path d="m184 120a24 24 0 0 1 24 24v88a0 0 0 0 1 0 0h-48a0 0 0 0 1 0 0v-88a24 24 0 0 1 24-24z" fill="#eae9e4"/><path d="m328 120a24 24 0 0 1 24 24v88a0 0 0 0 1 0 0h-48a0 0 0 0 1 0 0v-88a24 24 0 0 1 24-24z" fill="#eae9e4"/><path d="m360 232a16 16 0 1 1 0 32h-208a16 16 0 1 1 0-32z" fill="#5ebef7"/><path d="m360 264v72a104 104 0 0 1 -208 0v-72z" fill="#92d1f7"/><g fill="#5ebef7"><path d="m152 264a16 16 0 1 1 0-32h208a16 16 0 1 1 0 32z"/><path d="m152 288h32a8 8 0 0 1 0 16h-32z"/><path d="m360 304h-144a8 8 0 0 1 0-16h144z"/></g><path d="m216 104h32l-8 64 64-80h-32l8-64z" fill="#ee9d0d"/></g></svg>