<svg height="512" viewBox="0 0 512 512" width="512" xmlns="http://www.w3.org/2000/svg"><g id="flat"><path d="m407.217 377.043h-80.608v-30.26l-70.609 60.521 70.609 50.435v-20.174h112.956z" fill="#768753"/><path d="m263 54.261h-77.609l-70.608 121.043h70.608l40.348-60.521h58.435z" fill="#768753"/><path d="m256 54.261h70.609l50.434 121.043 30.261-20.174-20.174 100.87-90.782-30.261 30.261-20.174z" fill="#91a666"/><path d="m366.957 306.435 60.521-30.261 60.522 100.869-20.174 60.522h-30.261z" fill="#91a666"/><path d="m215.652 377.043v60.522h-171.478l-20.174-60.522z" fill="#768753"/><path d="m124.87 306.435-56.199 131.13-24.671-.565-20-59.957 40.348-90.782-30.261-10.087 100.87-60.522 20.173 100.87z" fill="#91a666"/></g></svg>