<svg height="512" viewBox="0 0 512 512" width="512" xmlns="http://www.w3.org/2000/svg"><g id="flat"><path d="m288 136-96 128h72l-48 112 128-152h-72z" fill="#ee9d0d"/><path d="m330.706 432.244 9.938-31.084a168.032 168.032 0 0 1 -223.677-239.49l12.345 8.83 2.238-57.481-63.5 6.033 12.7 10.665c-65.643 90.9-50.891 218.433 36.34 291.691 73 61.305 174.662 66.039 251.713 18.857z" fill="#5ebef7"/><path d="m421.408 394.911c76.718-91.352 64.855-227.6-26.5-304.319-75.764-63.627-182.4-66.32-260.36-13.276l44.868 3.5-5.688 28.662a168.022 168.022 0 0 1 210.92 254.559l-12.248-10.285.762 56.481 60.5-5.032z" fill="#a6deff"/></g></svg>