<svg height="512" viewBox="0 0 512 512" width="512" xmlns="http://www.w3.org/2000/svg"><g id="flat"><path d="m160 480h-128v-160l64-96 64 96z" fill="#dcdbd6"/><path d="m160 320h320l-64-96h-320z" fill="#007af6"/><path d="m416 224h-320l64 96h320zm-4.28 8 21.33 32h-44.77l-21.33-32zm-64 0 21.33 32h-44.77l-21.33-32zm-64 0 21.33 32h-44.77l-21.33-32zm-64 0 21.33 32h-44.77l-21.33-32zm-108.77 0h44.77l21.33 32h-44.77zm53.33 80-21.33-32h44.77l21.33 32zm64 0-21.33-32h44.77l21.33 32zm64 0-21.33-32h44.77l21.33 32zm64 0-21.33-32h44.77l21.33 32zm42.67-32h44.77l21.33 32h-44.77z" fill="#005dbb"/><path d="m160 320h320v160h-320z" fill="#eae9e4"/><path d="m345 406 32-.637-14.05 44.979 49.415-62.239-20.365-.103 6-37z" fill="#ee9d0d"/><path d="m96 368a32 32 0 0 1 32 32v80a0 0 0 0 1 0 0h-64a0 0 0 0 1 0 0v-80a32 32 0 0 1 32-32z" fill="#2c91ff"/><circle cx="256.645" cy="112.645" fill="#ee9d0d" r="33"/><g fill="#f3be5f"><path d="m256.807 58.925h-.021a8 8 0 0 1 -7.979-8.021l.046-17.634a8 8 0 0 1 8-7.979h.02a8 8 0 0 1 7.98 8.021l-.046 17.634a8 8 0 0 1 -8 7.979z"/><path d="m213.116 76.889a7.976 7.976 0 0 1 -5.672-2.358l-12.436-12.5a8 8 0 0 1 11.344-11.284l12.436 12.5a8 8 0 0 1 -5.672 13.642z"/><path d="m194.925 120.484h-.025l-17.633-.046a8 8 0 0 1 .02-16h.021l17.633.046a8 8 0 0 1 -.02 16z"/><path d="m200.387 176.611a8 8 0 0 1 -5.642-13.672l12.5-12.437a8 8 0 1 1 11.283 11.344l-12.5 12.437a7.974 7.974 0 0 1 -5.641 2.328z"/><path d="m256.438 200h-.02a8 8 0 0 1 -7.98-8.021l.046-17.634a8 8 0 0 1 8-7.979h.021a8 8 0 0 1 7.979 8.021l-.046 17.634a8 8 0 0 1 -8 7.979z"/><path d="m312.611 176.9a7.976 7.976 0 0 1 -5.672-2.358l-12.437-12.5a8 8 0 0 1 11.344-11.284l12.437 12.5a8 8 0 0 1 -5.672 13.642z"/><path d="m336 120.853h-.021l-17.634-.046a8 8 0 0 1 .02-16h.021l17.635.046a8 8 0 0 1 -.021 16z"/><path d="m300.4 77.117a8 8 0 0 1 -5.642-13.672l12.5-12.437a8 8 0 0 1 11.285 11.343l-12.5 12.437a7.979 7.979 0 0 1 -5.643 2.329z"/></g><path d="m346 192h52a10 10 0 0 1 10 10v22a0 0 0 0 1 0 0h-72a0 0 0 0 1 0 0v-22a10 10 0 0 1 10-10z" fill="#eae9e4"/><path d="m192 478c-4.418 0-8 .418-8-4v-106.633a19.919 19.919 0 0 1 36.493-11.05l10.163 15.245a8 8 0 0 1 -13.312 8.876l-10.163-15.246a3.92 3.92 0 0 0 -7.181 2.175v108.633c0 4.418-3.582 2-8 2z" fill="#7a4922"/><path d="m240.992 455a8 8 0 0 1 -7.974-7.468l-1-15a8 8 0 0 1 15.964-1.064l1 15a8 8 0 0 1 -7.45 8.514q-.272.018-.54.018z" fill="#f3be5f"/><path d="m273 437a7.98 7.98 0 0 1 -5.922-2.619l-10-11a8 8 0 0 1 11.84-10.762l10 11a8 8 0 0 1 -5.918 13.381z" fill="#f3be5f"/><path d="m296.007 411a8.01 8.01 0 0 1 -1.806-.207l-13-3a8 8 0 0 1 3.6-15.59l13 3a8 8 0 0 1 -1.792 15.8z" fill="#f3be5f"/><path d="m232 368-18 14 10 34 40-32z" fill="#ea2b2d"/><path d="m173.899 466.901h37.057v13.099h-37.057z" fill="#bbbab6"/><path d="m184 458.135h16v8.766h-16z" fill="#5b3719"/></g></svg>