<svg height="512" viewBox="0 0 512 512" width="512" xmlns="http://www.w3.org/2000/svg"><g id="flat"><path d="m289.5 223.606a79.987 79.987 0 0 0 -12.715-83.584 64 64 0 1 0 -121.574 0 79.987 79.987 0 0 0 -12.711 83.584 88 88 0 1 0 147 0z" fill="#91a666"/><path d="m470.061 279.569a64.2 64.2 0 0 0 -14.53-66.175 49.946 49.946 0 1 0 -92.035 0 64.2 64.2 0 0 0 -14.53 66.175 78.487 78.487 0 1 0 121.095 0z" fill="#fd9226"/><path d="m58.863 265.16-30.575 82.991a46.584 46.584 0 0 0 16.635 54.012 46.587 46.587 0 0 0 54.154 0 46.584 46.584 0 0 0 16.635-54.012l-30.575-82.991c-4.5-12.213-21.774-12.213-26.274 0z" fill="#ea2b2d"/><g fill="#5b3719"><path d="m439.17 325.657a8 8 0 0 0 -11.313-11.314l-10.343 10.343v-92.686a8 8 0 0 0 -16 0v52.687l-10.344-10.344a8 8 0 0 0 -11.313 11.314l21.657 21.656v49.374l-10.344-10.344a8 8 0 0 0 -11.313 11.314l21.657 21.656v84.687a8 8 0 0 0 16 0v-116.687z"/><path d="m245.657 181.657a8 8 0 0 0 -11.314-11.314l-10.343 10.344v-52.687a8 8 0 0 0 -16 0v12.687l-10.343-10.344a8 8 0 0 0 -11.314 11.314l21.657 21.656v65.374l-10.343-10.344a8 8 0 0 0 -11.314 11.314l21.657 21.656v49.374l-10.343-10.344a8 8 0 0 0 -11.314 11.314l21.657 21.656v140.687a8 8 0 0 0 16 0v-172.687l21.657-21.656a8 8 0 1 0 -11.314-11.314l-10.343 10.344v-65.374z"/><path d="m82.343 327.846-2.343 2.343v-28.689a8 8 0 0 0 -16 0v52.686l-2.343-2.343a8 8 0 0 0 -11.314 11.317l13.657 13.656v87.184a8 8 0 0 0 16 0v-111.184l13.657-13.656a8 8 0 0 0 -11.314-11.314z"/></g><path d="m488 472h-464a8 8 0 0 1 0-16h464a8 8 0 0 1 0 16z" fill="#768753"/></g></svg>