<svg height="512" viewBox="0 0 512 512" width="512" xmlns="http://www.w3.org/2000/svg"><g id="flat"><path d="m417.013 134.763a36.605 36.605 0 0 0 -8.285-37.736 28.482 28.482 0 1 0 -52.483 0 36.612 36.612 0 0 0 -8.285 37.736 44.757 44.757 0 1 0 69.053 0z" fill="#ee9d0d"/><path d="m159.283 136.218a36.605 36.605 0 0 0 -8.283-37.736 28.482 28.482 0 1 0 -52.483 0 36.612 36.612 0 0 0 -8.285 37.736 44.757 44.757 0 1 0 69.053 0z" fill="#768753"/><path d="m292.683 110.979a40.5 40.5 0 0 0 -9.166-41.746 31.509 31.509 0 1 0 -58.061 0 40.5 40.5 0 0 0 -9.166 41.746 49.514 49.514 0 1 0 76.393 0z" fill="#91a666"/><g fill="#a3612d"><path d="m266.343 122.343-2.343 2.343v-68.686a8 8 0 0 0 -16 0v44.686l-2.343-2.343a8 8 0 0 0 -11.314 11.314l13.657 13.657v25.6l-2.069-2.286a8 8 0 1 0 -11.862 10.738l13.931 15.389v83.245a8 8 0 0 0 16 0v-108.686l13.657-13.657a8 8 0 1 0 -11.314-11.314z"/><path d="m405.92 138.619a8 8 0 0 0 -11.3-.539l-2.62 2.381v-36.461a8 8 0 0 0 -16 0v12.461l-2.619-2.381a8 8 0 1 0 -10.762 11.84l13.381 12.164v26.616l-2.332-2.342a8 8 0 0 0 -11.336 11.292l13.668 13.719v67.176a8 8 0 1 0 16 0v-92.461l13.381-12.164a8 8 0 0 0 .539-11.301z"/><path d="m136.89 139.535-2.619 2.381v-36.461a8 8 0 1 0 -16 0v12.461l-2.62-2.381a8 8 0 0 0 -10.761 11.84l13.381 12.164v26.612l-2.333-2.341a8 8 0 1 0 -11.338 11.29l13.668 13.723v67.177a8 8 0 1 0 16 0v-92.461l13.38-12.164a8 8 0 0 0 -10.761-11.84z"/></g><path d="m100.082 390.841a165.318 165.318 0 0 0 301.887-134.841h-302.505a165.692 165.692 0 0 0 .618 134.841z" fill="#5ebef7"/><path d="m298.92 439.79a13.772 13.772 0 0 1 -13.77 13.78h-1.98a11.779 11.779 0 0 0 -11.79 11.79 22.644 22.644 0 0 1 -22.1 22.63 164.7 164.7 0 0 1 -59.62-11.64 17.226 17.226 0 0 1 16.29-22.78h5.17a5.173 5.173 0 0 0 5.16-5.17 22.382 22.382 0 0 1 22.39-22.38h46.48a13.776 13.776 0 0 1 13.77 13.77z" fill="#b5cf7f"/><path d="m413.72 350.26a164.5 164.5 0 0 1 -34.67 76.62h-7.17a10.977 10.977 0 0 1 -10.97-10.98 10.988 10.988 0 0 0 -11.05-10.98l-9.62.06c-.13 0-.25.01-.38.01a13.407 13.407 0 0 1 -13.39-13.41 13.759 13.759 0 0 0 -13.77-13.77 13.775 13.775 0 1 1 0-27.55z" fill="#b5cf7f"/><path d="m223.17 390.728a20.66 20.66 0 0 0 20.66-20.661 20.66 20.66 0 0 0 -20.66-20.66h-6.887a13.774 13.774 0 0 1 0-27.548h96.417a20.66 20.66 0 0 0 0-41.32h-68.87a13.767 13.767 0 0 1 -8.578-24.539h-135.788a165.692 165.692 0 0 0 .618 134.841z" fill="#b5cf7f"/></g></svg>