<svg height="512" viewBox="0 0 512 512" width="512" xmlns="http://www.w3.org/2000/svg"><g id="flat"><path d="m424 232h-96v48h96v40h48v-40a48 48 0 0 0 -48-48z" fill="#eae9e4"/><circle cx="192" cy="258.717" fill="#5ebef7" r="165.283"/><path d="m392 200h32v32h-32z" fill="#dcdbd6"/><path d="m392 176h32v32h-32z" fill="#bbbab6"/><rect fill="#007af6" height="32" rx="16" width="64" x="376" y="168"/><path d="m448 352-25.289 50.578a25.859 25.859 0 0 0 1.613 25.908 25.857 25.857 0 0 0 21.515 11.514h4.322a25.857 25.857 0 0 0 21.515-11.514 25.859 25.859 0 0 0 1.613-25.908z" fill="#5ebef7"/><path d="m464.04 414.14a25.833 25.833 0 0 1 -22.03 25.57 25.843 25.843 0 0 1 -19.3-37.13l19.3-38.6 19.3 38.6a25.767 25.767 0 0 1 2.73 11.56z" fill="#5ebef7"/><path d="m464.04 414.14a25.833 25.833 0 0 1 -22.03 25.57 25.843 25.843 0 0 1 -19.3-37.13l19.3-38.6 19.3 38.6a25.767 25.767 0 0 1 2.73 11.56z" fill="#92d1f7"/><g fill="#b5cf7f"><path d="m274.64 237.2a20.656 20.656 0 0 1 -20.66 20.66h-96.41a13.775 13.775 0 0 0 0 27.55h6.88a20.66 20.66 0 1 1 0 41.32h-123.13a165.509 165.509 0 0 1 16.61-164.7l147.84-.59a13.775 13.775 0 1 1 0 27.55h-20.66a13.775 13.775 0 0 0 0 27.55h68.87a20.66 20.66 0 0 1 20.66 20.66z"/><path d="m355 286.26a164.5 164.5 0 0 1 -34.67 76.62h-7.16a10.977 10.977 0 0 1 -10.98-10.98 10.979 10.979 0 0 0 -11.04-10.98l-9.63.06c-.13 0-.25.01-.38.01a13.407 13.407 0 0 1 -13.39-13.41 13.759 13.759 0 0 0 -13.77-13.77 13.775 13.775 0 0 1 0-27.55z"/><path d="m347.56 202.77h-40.11a12.155 12.155 0 0 1 -12.15-12.15 15.394 15.394 0 0 0 -15.4-15.4h-5.26a13.775 13.775 0 0 1 0-27.55h39.78a165.059 165.059 0 0 1 33.14 55.1z"/><path d="m240.21 375.79a13.781 13.781 0 0 1 -13.78 13.78h-1.97a11.8 11.8 0 0 0 -11.8 11.79 22.632 22.632 0 0 1 -22.34 22.63 164.914 164.914 0 0 1 -59.37-11.63 17.209 17.209 0 0 1 16.29-22.79h5.16a5.19 5.19 0 0 0 5.17-5.17 22.38 22.38 0 0 1 22.38-22.38h46.48a13.793 13.793 0 0 1 13.78 13.77z"/><path d="m233.31 98.63a22.628 22.628 0 0 1 -22.63 22.35h-42.78a17.217 17.217 0 0 1 -16.37-22.56 166.647 166.647 0 0 1 81.78.21z"/></g></g></svg>