<svg height="512" viewBox="0 0 512 512" width="512" xmlns="http://www.w3.org/2000/svg"><g id="flat"><path d="m375.269 127.457a32.54 32.54 0 0 1 -9.93-12.136l-1.452-3.049a37.511 37.511 0 0 1 .15-30.209 37.521 37.521 0 0 0 2.263-23.813l-6.232-26.663-34.418 41.059a34.421 34.421 0 0 0 -7.836 18.346 34.422 34.422 0 0 0 12.1 30.147 34.421 34.421 0 0 0 -48.493 4.265l-34.421 41.058 27.341 1.483a37.514 37.514 0 0 0 23.052-6.388 37.514 37.514 0 0 1 29.719-5.42 32.831 32.831 0 0 1 17.131 11.883l24.864 33.31a62.086 62.086 0 0 1 5.777 64.9 62.084 62.084 0 0 1 -72.184 32.045l-87.083-31.735a543.989 543.989 0 0 0 -95.744-25.3l-29.531-4.98a27.928 27.928 0 0 0 -32.4 23.782 201.938 201.938 0 0 0 -1.926 30.3 200 200 0 1 0 319.253-162.885z" fill="#0a71cd"/><path d="m445.21 353.2a200.082 200.082 0 0 1 -389.2-62.86 203.439 203.439 0 0 1 1.93-30.3 28 28 0 0 1 6.88-14.88l29.8 49.13a145.961 145.961 0 0 0 124.78 70.24l2.71 1.74a187.073 187.073 0 0 0 200.01 1.32z" fill="#5ebef7"/><path d="m445.21 353.2a200.082 200.082 0 0 1 -389.2-62.86 203.439 203.439 0 0 1 1.93-30.3 28 28 0 0 1 6.88-14.88l29.8 49.13a145.961 145.961 0 0 0 124.78 70.24l2.71 1.74a187.073 187.073 0 0 0 200.01 1.32z" fill="#eae9e4"/><circle cx="165.603" cy="299.713" fill="#005dbb" r="13"/><path d="m64.82 112.67 7.32.6a64.211 64.211 0 0 1 43.705 22.472 64.206 64.206 0 0 1 15.117 37.691l1.11 18.567-18.132-4.133a64.2 64.2 0 0 1 -34.708-21.083 64.212 64.212 0 0 1 -15.015-46.794z" fill="#b5cf7f"/><path d="m132.07 192-12.99-2.96-55.07-64.96c.03-1.36.09-2.73.21-4.09l.6-7.32 7.32.6c1.36.11 2.72.27 4.07.47l23.75 28.01 8.26-13.6a62.861 62.861 0 0 1 7.63 7.59v.01q1.92 2.265 3.62 4.69l-8.61 14.17 20.41 24.08z" fill="#91a666"/><path d="m164.677 57.229 3.177.859a35.427 35.427 0 0 1 25.827 29.228 35.428 35.428 0 0 1 -14.945 34.12l-2.8 1.934a151.532 151.532 0 0 0 -44.56-53.517l-3.376-2.538 7.3-5.039a35.422 35.422 0 0 1 29.377-5.047z" fill="#91a666"/><path d="m180.49 64.43-5.89 56.31a151.177 151.177 0 0 0 -13.82-21.69l4.36-41.69 2.71.73a35.337 35.337 0 0 1 12.64 6.34z" fill="#768753"/><path d="m180.49 64.43-5.89 56.31a151.177 151.177 0 0 0 -13.82-21.69l4.36-41.69 2.71.73a35.337 35.337 0 0 1 12.64 6.34z" fill="#768753"/><path d="m209.292 174.473-3.136-1a35.428 35.428 0 0 0 -37.536 10.6 35.427 35.427 0 0 0 -5.9 36.78l1.311 3.147a151.562 151.562 0 0 1 66.433-20.889l4.212-.307-3.409-8.186a35.428 35.428 0 0 0 -21.975-20.145z" fill="#91a666"/><path d="m208.84 174.33-18.9 37.41a149.99 149.99 0 0 0 -23.36 10.78l25.53-50.55a35.344 35.344 0 0 1 14.05 1.51z" fill="#91a666"/><path d="m208.84 174.33-18.9 37.41a149.99 149.99 0 0 0 -23.36 10.78l25.53-50.55a35.344 35.344 0 0 1 14.05 1.51z" fill="#768753"/><g fill="#a6deff"><path d="m216 136a8 8 0 0 1 -5.657-13.657l8-8a8 8 0 0 1 11.314 11.314l-8 8a7.976 7.976 0 0 1 -5.657 2.343z"/><path d="m224 248a8 8 0 0 1 -5.657-13.657l8-8a8 8 0 0 1 11.314 11.314l-8 8a7.976 7.976 0 0 1 -5.657 2.343z"/><path d="m160 160a7.976 7.976 0 0 1 -5.657-2.343l-8-8a8 8 0 0 1 11.314-11.314l8 8a8 8 0 0 1 -5.657 13.657z"/></g><path d="m424.71 395.71a193.789 193.789 0 0 1 -14.42 19.81l-95.61 20.36a187.629 187.629 0 0 1 -202.08-90.56l-52.82-92.09a27.6 27.6 0 0 1 5.04-8.07l29.8 49.13a146.067 146.067 0 0 0 24.63 30.47l7.24 12.62a172.776 172.776 0 0 0 80.16 72.17 170.658 170.658 0 0 0 104.7 10.68l104.93-22.35z" fill="#dcdbd6"/><path d="m394.04 432.96a199.163 199.163 0 0 1 -26.16 21.02l-43.75 8.32a244.419 244.419 0 0 1 -142.09-15.37 188.542 188.542 0 0 1 -90.33-81.42l-35.23-63.38v-.01q-.4-5.85-.47-11.78a201.559 201.559 0 0 1 .91-21.52l6.15 12.23 42.62 76.69a172.428 172.428 0 0 0 82.63 74.47 228.4 228.4 0 0 0 132.83 14.37l58.36-11.1a.5.5 0 0 0 .12-.02z" fill="#dcdbd6"/><path d="m222.11 366.27a187.12 187.12 0 0 0 51.871 23.055q1.13-7.236 2.736-14.4l8.207-36.452-68.64.291v25.714c1.038.022 2.075.051 3.116.051z" fill="#005dbb"/><path d="m242.929 446.132 13.089 12.954a10.326 10.326 0 0 0 17.483-8.821q-.273-1.878-.511-3.759a204.017 204.017 0 0 1 .991-57.18 187.12 187.12 0 0 1 -51.871-23.056l-2.71-1.74c-1.041 0-2.078-.029-3.116-.051v17.8a89.832 89.832 0 0 0 26.645 63.853z" fill="#bbbab6"/><path d="m208.616 336v43.514a89.839 89.839 0 0 0 26.644 63.854l13.09 12.954a10.326 10.326 0 0 0 17.482-8.822q-.271-1.878-.511-3.76a207.233 207.233 0 0 1 3.727-71.579l8.207-36.452z" fill="#0a71cd"/></g></svg>