<svg height="512" viewBox="0 0 512 512" width="512" xmlns="http://www.w3.org/2000/svg"><g id="flat"><path d="m344 486c-4.418 0-8-17.582-8-22v-57.051l-11.562 7.708a8 8 0 0 1 -8.876-13.312l24-16a8 8 0 0 1 12.438 6.655v86a8 8 0 0 1 -8 8z" fill="#dcdbd6"/><path d="m367.993 416a7.96 7.96 0 0 1 -4.431-1.345l-24-16a8 8 0 0 1 -3.562-6.655v-24a8 8 0 0 1 16 0v19.72l20.438 13.625a8 8 0 0 1 -4.445 14.655z" fill="#eae9e4"/><path d="m168 480c-4.418 0-8 1.418-8-3v-62.052l-11.562 7.708a8 8 0 1 1 -8.876-13.312l24-16a8 8 0 0 1 12.438 6.656v72a8 8 0 0 1 -8 8z" fill="#dcdbd6"/><path d="m207.993 289.77a7.968 7.968 0 0 1 -4.363-1.3 96.462 96.462 0 0 1 -33.158-36.828 8 8 0 0 1 14.246-7.284 80.427 80.427 0 0 0 27.652 30.709 8 8 0 0 1 -4.377 14.7z" fill="#a6deff"/><path d="m202.8 323.6a7.969 7.969 0 0 1 -3.544-.833 127.97 127.97 0 0 1 -54.185-50.859 8 8 0 1 1 13.857-8 112.019 112.019 0 0 0 47.429 44.52 8 8 0 0 1 -3.557 15.172z" fill="#92d1f7"/><path d="m192 353.912a7.981 7.981 0 0 1 -3.368-.748 160.021 160.021 0 0 1 -68.694-60.948 8 8 0 1 1 13.6-8.432 144.057 144.057 0 0 0 61.843 54.871 8 8 0 0 1 -3.381 15.257z" fill="#a6deff"/><path d="m334.4 256a8 8 0 0 1 -7.116-11.642 80.252 80.252 0 0 0 3.267-65.449 8 8 0 0 1 14.9-5.82 96.248 96.248 0 0 1 -3.925 78.551 8 8 0 0 1 -7.126 4.36z" fill="#92d1f7"/><path d="m357.519 280a8 8 0 0 1 -6.756-12.273 112.1 112.1 0 0 0 0-119.456 8 8 0 1 1 13.528-8.544 128.1 128.1 0 0 1 0 136.544 7.994 7.994 0 0 1 -6.772 3.729z" fill="#a6deff"/><path d="m389.892 288a8 8 0 0 1 -7.036-11.8 144.213 144.213 0 0 0 17.144-68.2 142.574 142.574 0 0 0 -30.312-88.391 8 8 0 1 1 12.624-9.83 158.434 158.434 0 0 1 33.688 98.221 160.257 160.257 0 0 1 -19.059 75.8 8 8 0 0 1 -7.049 4.2z" fill="#a6deff"/><path d="m240 224-11.389 102.5a753.872 753.872 0 0 0 -4.611 83.256v38.244h64v-38.244a753.872 753.872 0 0 0 -4.611-83.257l-11.389-102.499z" fill="#eae9e4"/><path d="m287.94 400h-63.88q.21-16.02 1.09-32h61.7q.87 15.975 1.09 32z" fill="#0a71cd"/><g fill="#eae9e4"><path d="m256 24a262.418 262.418 0 0 0 -19.047 149.719l3.047 18.281h32l3.047-18.281a262.418 262.418 0 0 0 -19.047-149.719z"/><path d="m96.651 300a262.423 262.423 0 0 0 139.184-58.364l14.309-11.78-16-27.712-17.356 6.5a262.417 262.417 0 0 0 -120.137 91.356z"/><path d="m415.349 300a262.417 262.417 0 0 0 -120.137-91.354l-17.356-6.5-16 27.712 14.309 11.78a262.423 262.423 0 0 0 139.184 58.362z"/><path d="m273.77 181.38-1.77 10.62h-32l-1.77-10.62a32.037 32.037 0 0 1 35.54 0z"/><path d="m250.14 229.86-8.31 6.84a32.02 32.02 0 0 1 -17.83-28.7c0-.7.02-1.39.07-2.08l10.07-3.78z"/><path d="m288 208a32.02 32.02 0 0 1 -17.83 28.7l-8.31-6.84 16-27.72 10.07 3.78c.05.69.07 1.38.07 2.08z"/></g><path d="m132 112h-36a8 8 0 0 1 0-16h36a20 20 0 1 0 -20-20 8 8 0 0 1 -16 0 36 36 0 1 1 36 36z" fill="#ffc864"/><path d="m172 200a36.04 36.04 0 0 1 -36-36 8 8 0 0 1 16 0 20 20 0 1 0 20-20h-60a8 8 0 0 1 0-16h60a36 36 0 0 1 0 72z" fill="#ffc864"/><path d="m80 144h-56a8 8 0 0 1 0-16h56a8 8 0 0 1 0 16z" fill="#ffc864"/><path d="m289.352 448h-66.7a82.39 82.39 0 0 0 -70.652 40h208a82.39 82.39 0 0 0 -70.648-40z" fill="#91a666"/><path d="m64 112h-24a8 8 0 0 1 0-16h24a8 8 0 0 1 0 16z" fill="#ffc864"/><path d="m234.14 202.14 16 27.72-8.31 6.84a32.02 32.02 0 0 1 -17.83-28.7c0-.7.02-1.39.07-2.08z" fill="#dcdbd6"/><path d="m240 192-1.77-10.62a32.037 32.037 0 0 1 35.54 0l-1.77 10.62z" fill="#dcdbd6"/><path d="m288 208a32.02 32.02 0 0 1 -17.83 28.7l-8.31-6.84 16-27.72 10.07 3.78c.05.69.07 1.38.07 2.08z" fill="#dcdbd6"/><circle cx="256" cy="208" fill="#eae9e4" r="24"/><path d="m191.993 424a7.96 7.96 0 0 1 -4.431-1.345l-24-16a8 8 0 0 1 -3.562-6.655v-24a8 8 0 0 1 16 0v19.719l20.438 13.625a8 8 0 0 1 -4.445 14.656z" fill="#eae9e4"/></g></svg>