<svg height="512" viewBox="0 0 512 512" width="512" xmlns="http://www.w3.org/2000/svg"><g id="flat"><g fill="#5ebef7"><circle cx="258.717" cy="259.043" r="234.242"/><path d="m317.28 32.17a32.09 32.09 0 0 1 -32.09 31.67h-60.63a24.4 24.4 0 0 1 -23.2-31.96 236.118 236.118 0 0 1 115.92.29z"/><path d="m327.04 424.96a19.514 19.514 0 0 1 -19.52 19.52h-2.81a16.713 16.713 0 0 0 -16.71 16.72 32.1 32.1 0 0 1 -31.19 32.08h-.07a233.494 233.494 0 0 1 -84.54-16.49 24.073 24.073 0 0 1 -1.32-7.9 24.4 24.4 0 0 1 24.4-24.41h7.32a7.306 7.306 0 0 0 7.32-7.32 31.724 31.724 0 0 1 31.72-31.72h65.88a19.529 19.529 0 0 1 19.52 19.52z"/><path d="m253.28 355.43h-208.12a234.439 234.439 0 0 1 72.53-283.43h20.69a29.635 29.635 0 0 1 29.62 29.62 18.585 18.585 0 0 0 18.38 18.58l91.86.99a19.52 19.52 0 0 1 0 39.04h-29.28a19.52 19.52 0 1 0 0 39.04h97.6a29.28 29.28 0 0 1 0 58.56h-103.04a19.52 19.52 0 1 0 0 39.04h9.76a29.28 29.28 0 1 1 0 58.56z"/><path d="m480.01 182.08h-57.68a17.208 17.208 0 0 1 -17.21-17.22 21.823 21.823 0 0 0 -21.83-21.82h-7.45a19.52 19.52 0 1 1 0-39.04h58.46a233.68 233.68 0 0 1 45.71 78.08z"/><path d="m492.87 265.34a233.145 233.145 0 0 1 -53.37 142.66h-9.06a15.558 15.558 0 0 1 -15.56-15.56 15.556 15.556 0 0 0 -15.56-15.55h-.09l-20.68.08a18.991 18.991 0 0 1 -19.51-18.99 19.529 19.529 0 0 0 -19.52-19.52 19.52 19.52 0 0 1 0-39.04h75.44a17.041 17.041 0 0 0 17.04-17.04 17.037 17.037 0 0 1 17.04-17.04z"/></g><path d="m375.84 228.55a29.281 29.281 0 0 1 -29.28 29.28h-103.04a19.52 19.52 0 1 0 0 39.04h9.76a29.28 29.28 0 1 1 0 58.56h-208.12a234.439 234.439 0 0 1 72.53-283.43h20.69a29.635 29.635 0 0 1 29.62 29.62 18.585 18.585 0 0 0 18.38 18.58l91.86.99a19.52 19.52 0 0 1 0 39.04h-29.28a19.52 19.52 0 1 0 0 39.04h97.6a29.294 29.294 0 0 1 29.28 29.28z" fill="#b5cf7f"/><path d="m492.87 265.34a233.145 233.145 0 0 1 -53.37 142.66h-9.06a15.558 15.558 0 0 1 -15.56-15.56 15.556 15.556 0 0 0 -15.56-15.55h-.09l-20.68.08a18.991 18.991 0 0 1 -19.51-18.99 19.529 19.529 0 0 0 -19.52-19.52 19.52 19.52 0 0 1 0-39.04h75.44a17.041 17.041 0 0 0 17.04-17.04 17.037 17.037 0 0 1 17.04-17.04z" fill="#b5cf7f"/><path d="m480.01 182.08h-57.68a17.208 17.208 0 0 1 -17.21-17.22 21.823 21.823 0 0 0 -21.83-21.82h-7.45a19.52 19.52 0 1 1 0-39.04h58.46a233.68 233.68 0 0 1 45.71 78.08z" fill="#b5cf7f"/><path d="m327.04 424.96a19.514 19.514 0 0 1 -19.52 19.52h-2.81a16.713 16.713 0 0 0 -16.71 16.72 32.1 32.1 0 0 1 -31.19 32.08h-.07a233.494 233.494 0 0 1 -84.54-16.49 24.073 24.073 0 0 1 -1.32-7.9 24.4 24.4 0 0 1 24.4-24.41h7.32a7.306 7.306 0 0 0 7.32-7.32 31.724 31.724 0 0 1 31.72-31.72h65.88a19.529 19.529 0 0 1 19.52 19.52z" fill="#b5cf7f"/><path d="m317.28 32.17a32.09 32.09 0 0 1 -32.09 31.67h-60.63a24.4 24.4 0 0 1 -23.2-31.96 236.118 236.118 0 0 1 115.92.29z" fill="#b5cf7f"/></g></svg>